<?xml version="1.0" encoding="UTF-8"?>
<svg xmlns="http://www.w3.org/2000/svg" viewBox="0 0 900 1200" preserveAspectRatio="xMidYMid meet">
  <rect width="900" height="1200" fill="none"/>
  <g pointer-events="none" fill="#FF6B91" opacity="0.95">
    <!-- top-left hearts -->
    <path d="M120 140 C100 100 60 100 50 140 C50 180 120 220 120 220 C120 220 190 180 190 140 C190 100 160 100 140 140 Z"/>
    <path d="M200 180 C180 150 150 150 140 180 C140 210 200 240 200 240 C200 240 250 210 250 180 C250 150 220 150 200 180 Z" opacity="0.7"/>
    <!-- top-right hearts -->
    <path d="M760 120 C740 80 700 80 690 120 C690 160 760 200 760 200 C760 200 830 160 830 120 C830 80 800 80 780 120 Z"/>
    <!-- center small heart -->
    <path d="M420 320 C400 280 360 280 350 320 C350 360 420 400 420 400 C420 400 490 360 490 320 C490 280 460 280 440 320 Z" opacity="0.85"/>
  </g>
</svg>